<?xml version="1.0" encoding="iso-8859-1"?>
<!-- Uploaded to: SVG Repo, www.svgrepo.com, Generator: SVG Repo Mixer Tools -->
<svg height="800px" width="800px" version="1.1" id="Capa_1" xmlns="http://www.w3.org/2000/svg" xmlns:xlink="http://www.w3.org/1999/xlink" 
	 viewBox="0 0 464 464" xml:space="preserve">
<g>
	<path style="fill:#FFFFFF;" d="M384,128H80c-4.418,0-8,3.582-8,8v192c0,4.418,3.582,8,8,8h16v-58.154
		c0-7.405,4.909-13.913,12.029-15.948l21.158-6.045c0.835-0.239,1.682-0.055,2.337,0.405l0.269-0.09
		c0.054-0.018,0.102-0.047,0.156-0.066l3.946-5.261c0.364-0.486,0.862-0.809,1.404-0.975c0.099-0.511,0.165-1.031,0.165-1.566
		v-3.956c-6.488-5.841-11.494-13.915-14.244-23.267c-4.382-0.295-7.87-5.112-7.87-11.029c0-3.605,1.3-6.797,3.302-8.816
		c-0.344-0.694-0.538-1.465-0.538-2.263v-11.035v-2.821v-5.472c0-0.766,0.039-1.522,0.1-2.272c0.009-0.108,0.015-0.216,0.025-0.323
		c0.066-0.712,0.163-1.415,0.282-2.11c0.022-0.128,0.045-0.256,0.069-0.384c0.129-0.691,0.28-1.374,0.459-2.046
		c0.027-0.103,0.058-0.204,0.087-0.306c0.196-0.701,0.411-1.395,0.659-2.073c0-0.001,0.001-0.003,0.002-0.004
		c0.25-0.682,0.533-1.347,0.833-2.003c0.04-0.088,0.078-0.176,0.119-0.263c0.294-0.623,0.614-1.232,0.952-1.829
		c0.059-0.104,0.118-0.207,0.178-0.31c0.346-0.593,0.712-1.173,1.1-1.736c0.053-0.077,0.108-0.151,0.162-0.228
		c0.83-1.179,1.749-2.291,2.749-3.324c0.055-0.057,0.109-0.116,0.165-0.173c0.487-0.495,0.994-0.969,1.516-1.426
		c0.078-0.068,0.156-0.136,0.235-0.204c0.528-0.452,1.072-0.885,1.634-1.297c0.064-0.047,0.129-0.092,0.194-0.138
		c1.186-0.854,2.442-1.615,3.758-2.275c0.057-0.029,0.114-0.059,0.171-0.088c0.639-0.315,1.293-0.602,1.958-0.868
		c0.088-0.035,0.177-0.07,0.266-0.105c0.667-0.258,1.345-0.493,2.035-0.699c0.071-0.021,0.143-0.04,0.215-0.061
		c2.451-0.712,5.04-1.101,7.721-1.101h33.171c15.267,0,27.643,12.376,27.643,27.643v5.472v2.821v11.035
		c0,0.799-0.193,1.569-0.538,2.263c2.002,2.018,3.302,5.211,3.302,8.816c0,5.934-3.508,10.762-7.909,11.031
		c-2.745,9.333-7.737,17.391-14.205,23.229v3.991c0,0.535,0.067,1.055,0.165,1.566c0.542,0.166,1.04,0.489,1.404,0.975l3.945,5.26
		c0.054,0.019,0.102,0.048,0.156,0.066l0.269,0.09c0.655-0.46,1.502-0.644,2.337-0.405l21.158,6.045
		c3.267,0.934,6.06,2.817,8.135,5.289l0.003-0.003c0.04,0.047,0.073,0.098,0.112,0.145c0.214,0.261,0.423,0.527,0.621,0.8
		c0.108,0.147,0.209,0.299,0.312,0.45c0.135,0.2,0.267,0.4,0.393,0.605c0.058,0.094,0.123,0.181,0.179,0.276l-0.012,0.011
		c1.454,2.482,2.284,5.349,2.284,8.374V336h11.864v-29.678c0-6.914,4.289-13.102,10.762-15.53l7.386-2.77
		c-15.238-4.165-26.441-18.1-26.441-34.659h0.005c0-0.066-0.005-0.131-0.005-0.197c10.687,0,19.35-8.663,19.35-19.35v-13.625
		c0-0.916,0.024-1.827,0.071-2.732c0.016-0.307,0.049-0.61,0.07-0.916c0.041-0.595,0.078-1.191,0.138-1.78
		c0.037-0.359,0.092-0.713,0.136-1.07c0.065-0.53,0.125-1.062,0.206-1.587c0.059-0.379,0.135-0.752,0.201-1.128
		c0.088-0.496,0.169-0.994,0.271-1.485c0.08-0.386,0.177-0.766,0.265-1.149c0.109-0.474,0.213-0.95,0.335-1.419
		c0.1-0.386,0.217-0.765,0.326-1.147c0.13-0.458,0.255-0.917,0.398-1.37c0.121-0.384,0.257-0.76,0.386-1.14
		c0.15-0.442,0.296-0.886,0.458-1.323c0.14-0.379,0.295-0.75,0.443-1.125c0.17-0.429,0.337-0.859,0.518-1.283
		c0.159-0.372,0.332-0.737,0.5-1.105c0.189-0.415,0.375-0.831,0.574-1.24c0.178-0.365,0.369-0.723,0.555-1.084
		c0.208-0.401,0.412-0.804,0.63-1.2c0.196-0.356,0.403-0.705,0.607-1.056c0.225-0.388,0.448-0.777,0.683-1.159
		c0.214-0.347,0.438-0.687,0.66-1.029c0.242-0.374,0.483-0.749,0.735-1.116c0.23-0.336,0.47-0.665,0.708-0.995
		c0.26-0.361,0.518-0.722,0.787-1.076c0.246-0.325,0.501-0.642,0.755-0.961c0.276-0.347,0.551-0.693,0.836-1.033
		c0.262-0.313,0.531-0.618,0.8-0.924c0.292-0.333,0.584-0.665,0.884-0.99c0.277-0.299,0.56-0.592,0.844-0.885
		c0.307-0.318,0.615-0.634,0.93-0.944c0.292-0.287,0.589-0.566,0.887-0.846c0.321-0.301,0.643-0.602,0.972-0.895
		c0.305-0.272,0.616-0.538,0.928-0.804c0.336-0.286,0.673-0.571,1.017-0.848c0.318-0.257,0.641-0.508,0.965-0.758
		c0.349-0.269,0.7-0.537,1.056-0.797c0.331-0.243,0.667-0.479,1.005-0.714c0.362-0.252,0.726-0.501,1.094-0.745
		c0.343-0.227,0.69-0.447,1.039-0.666c0.375-0.235,0.752-0.466,1.133-0.692c0.354-0.21,0.712-0.414,1.072-0.616
		c0.386-0.217,0.775-0.429,1.167-0.636c0.367-0.194,0.736-0.382,1.107-0.567c0.397-0.198,0.796-0.39,1.199-0.578
		c0.377-0.176,0.755-0.347,1.137-0.514c0.408-0.179,0.819-0.352,1.232-0.52c0.386-0.157,0.774-0.311,1.165-0.459
		c0.418-0.159,0.839-0.311,1.262-0.46c0.396-0.139,0.792-0.274,1.192-0.403c0.428-0.138,0.859-0.27,1.291-0.397
		c0.404-0.119,0.809-0.236,1.218-0.346c0.437-0.117,0.877-0.227,1.318-0.333c0.412-0.1,0.825-0.197,1.242-0.287
		c0.445-0.096,0.894-0.183,1.343-0.268c0.419-0.079,0.839-0.156,1.261-0.225c0.455-0.074,0.912-0.138,1.371-0.201
		c0.425-0.058,0.851-0.115,1.279-0.163c0.462-0.051,0.927-0.092,1.393-0.131c0.432-0.036,0.863-0.073,1.297-0.099
		c0.469-0.028,0.941-0.044,1.413-0.06c0.437-0.014,0.874-0.03,1.314-0.033c0.148-0.001,0.295-0.011,0.444-0.011
		c-0.107,0-0.223,0.008-0.335,0.012c0.747-0.005,1.496-0.005,2.25,0.022c7.705,0.274,14.94,2.263,21.405,5.567
		c0.314-0.046,0.632-0.077,0.959-0.077c2.559,0,4.773,1.46,5.866,3.59c3.254-3.415,7.302-5.326,10.925-5.389
		c0.677,2.925,0.178,6.44-1.443,9.827c0.659,1.603,0.66,3.412,0.002,5.016c0.213,0.252,0.415,0.513,0.623,0.769
		c2.026,0.945,3.491,2.884,3.763,5.194c5.392,8.488,8.505,18.572,8.505,29.249v12.366c0,10.687,8.663,19.35,19.35,19.35
		c0,0.066-0.009,0.13-0.01,0.197H376c0,16.559-11.203,30.493-26.442,34.659l7.386,2.77c6.474,2.428,10.762,8.616,10.762,15.53V336
		H384c4.418,0,8-3.582,8-8V136C392,131.582,388.418,128,384,128z"/>
	<path style="fill:#FFB996;" d="M139.64,250.201l22.703,15.135l22.703-15.135c0.715-0.477,1.574-0.568,2.341-0.333
		c-0.098-0.511-0.165-1.031-0.165-1.566v-3.991c-6.549,5.91-14.605,9.536-23.351,9.922c-0.513,0.028-1.027,0.047-1.546,0.047
		c-9.326,0-17.933-3.696-24.86-9.933v3.956c0,0.534-0.067,1.055-0.165,1.566C138.067,249.633,138.925,249.724,139.64,250.201z"/>
	<path style="fill:#FFB996;" d="M131.95,256.103c-0.054,0.019-0.102,0.048-0.156,0.066l-0.269,0.09
		c0.067,0.047,0.136,0.093,0.199,0.146L131.95,256.103z"/>
	<path style="fill:#FFB996;" d="M193.161,256.259l-0.269-0.09c-0.054-0.018-0.102-0.047-0.156-0.066l0.227,0.302
		C193.026,256.352,193.094,256.306,193.161,256.259z"/>
	<path style="fill:#FFB996;" d="M195.42,260.382l0.094-0.575l-0.573,0.688C195.107,260.456,195.265,260.419,195.42,260.382z"/>
	<polygon style="fill:#FFB996;" points="162.343,265.336 162.31,265.355 162.376,265.355 	"/>
	<path style="fill:#FFEBE1;" d="M195.42,260.382c-0.156,0.036-0.313,0.074-0.479,0.113l-13.248,15.898v1.075
		c0,2.055-2.163,3.391-4,2.472l-10.199-5.099c-0.509,0.932-1.486,1.571-2.622,1.571h-5.057c-1.136,0-2.113-0.639-2.622-1.571
		l-10.199,5.099c-1.838,0.919-4-0.418-4-2.472v-1.075l-13.821-16.586L141.68,336h41.327L195.42,260.382z"/>
	<path style="fill:#FFD7B4;" d="M163.87,254.232c1.32-0.073,2.622-0.229,3.912-0.433c-15.588-3.214-27.629-24.023-27.629-49.277
		c0-6.077,0-12.864,0-17.914c-3.862-1.799-6.546-3.259-7.649-3.877c-0.001-0.001-0.003-0.001-0.004-0.002
		c-0.09-0.05-0.169-0.095-0.237-0.134c-0.008-0.004-0.014-0.008-0.021-0.012c-0.063-0.036-0.118-0.067-0.161-0.092
		c-0.001,0-0.001-0.001-0.002-0.001c-0.046-0.027-0.083-0.047-0.105-0.06c-0.025-0.014-0.037-0.022-0.037-0.022l-4.577,21.016
		c-0.464,1.855-2.625,2.69-4.215,1.63l-2.758-1.839c-0.754-0.503-1.342-1.192-1.733-1.98c-2.002,2.019-3.302,5.211-3.302,8.816
		c0,5.917,3.488,10.734,7.87,11.029c2.75,9.352,7.756,17.426,14.244,23.267c6.927,6.237,15.533,9.933,24.86,9.933
		C162.843,254.279,163.358,254.26,163.87,254.232z"/>
	<path style="fill:#6E4141;" d="M148.521,212.762v-2.773c0-1.524-1.236-2.76-2.76-2.76h-0.009c-1.524,0-2.76,1.236-2.76,2.76v2.773
		c0,1.524,1.236,2.76,2.76,2.76h0.009C147.286,215.522,148.521,214.286,148.521,212.762z"/>
	<path style="fill:#6E4141;" d="M178.924,215.522h0.009c1.524,0,2.76-1.236,2.76-2.76v-2.773c0-1.524-1.236-2.76-2.76-2.76h-0.009
		c-1.524,0-2.76,1.236-2.76,2.76v2.773C176.164,214.286,177.4,215.522,178.924,215.522z"/>
	<path style="fill:#FFFFFF;" d="M177.731,234.145c1.802-1.753,0.625-4.802-1.889-4.802h-27c-2.514,0-3.69,3.049-1.889,4.802
		c3.977,3.869,9.4,6.256,15.388,6.256C168.331,240.401,173.754,238.014,177.731,234.145z"/>
	<path style="fill:#FFE6D2;" d="M204.3,203.215l-2.758,1.839c-1.59,1.06-3.751,0.225-4.215-1.63l-1.813-9.959l-11.057-5.529
		c0,6.53,0,13.6,0,13.6c-6.641-3.558-12.129-7.815-16.586-12.044c0,3.581,0,6.68,0,6.68c-11.232-2.486-21.159-6.508-27.719-9.565
		c0,5.05,0,11.837,0,17.914c0,25.254,12.041,46.063,27.629,49.277c-1.29,0.204-2.592,0.36-3.912,0.433
		c8.747-0.385,16.803-4.011,23.351-9.922c6.468-5.838,11.46-13.896,14.205-23.229c4.401-0.269,7.909-5.098,7.909-11.031
		c0-3.605-1.3-6.797-3.302-8.816C205.643,202.023,205.055,202.712,204.3,203.215z M176.164,209.989c0-1.524,1.236-2.76,2.76-2.76
		h0.009c1.524,0,2.76,1.236,2.76,2.76v2.773c0,1.524-1.236,2.76-2.76,2.76h-0.009c-1.524,0-2.76-1.236-2.76-2.76V209.989z
		 M145.753,215.522c-1.524,0-2.76-1.236-2.76-2.76v-2.773c0-1.524,1.236-2.76,2.76-2.76h0.009c1.524,0,2.76,1.236,2.76,2.76v2.773
		c0,1.524-1.236,2.76-2.76,2.76H145.753z M148.843,229.343h27c2.514,0,3.69,3.049,1.889,4.802c-3.977,3.869-9.4,6.256-15.388,6.256
		c-5.988,0-11.411-2.386-15.388-6.256C145.153,232.392,146.329,229.343,148.843,229.343z"/>
	<path style="fill:#8C5046;" d="M119.797,170.126c0.25-0.682,0.533-1.347,0.833-2.003
		C120.329,168.779,120.047,169.444,119.797,170.126z"/>
	<path style="fill:#8C5046;" d="M140.229,186.642c-3.888-1.809-6.607-3.285-7.725-3.911c1.103,0.618,3.788,2.078,7.649,3.877
		c6.559,3.056,16.487,7.079,27.719,9.565c0,0,0-3.099,0-6.68c4.457,4.23,9.945,8.487,16.586,12.044c0,0,0-7.07,0-13.6l11.057,5.529
		l1.813,9.959c0.464,1.855,2.625,2.69,4.215,1.63l2.758-1.839c0.754-0.503,1.342-1.192,1.733-1.98
		c0.344-0.694,0.538-1.465,0.538-2.263v-11.035v-2.821v-5.472c0-15.267-12.376-27.643-27.643-27.643h-33.171
		c-2.681,0-5.27,0.389-7.721,1.101c0.72-0.209,1.45-0.395,2.192-0.546V186.642z"/>
	<path style="fill:#8C5046;" d="M135.786,153.861c0.667-0.258,1.345-0.493,2.035-0.699
		C137.131,153.369,136.453,153.603,135.786,153.861z"/>
	<path style="fill:#8C5046;" d="M119.136,172.202c0.196-0.701,0.411-1.395,0.659-2.073
		C119.547,170.808,119.331,171.501,119.136,172.202z"/>
	<path style="fill:#8C5046;" d="M118.59,174.554c0.129-0.691,0.28-1.374,0.459-2.046C118.87,173.18,118.719,173.863,118.59,174.554z
		"/>
	<path style="fill:#8C5046;" d="M118.114,179.643c0-0.766,0.039-1.522,0.1-2.272C118.154,178.121,118.114,178.877,118.114,179.643z"
		/>
	<path style="fill:#8C5046;" d="M120.749,167.86c0.294-0.623,0.614-1.232,0.952-1.829
		C121.363,166.628,121.043,167.237,120.749,167.86z"/>
	<path style="fill:#8C5046;" d="M118.239,177.048c0.066-0.712,0.163-1.415,0.282-2.11
		C118.402,175.633,118.306,176.336,118.239,177.048z"/>
	<path style="fill:#8C5046;" d="M126.055,160.26c0.487-0.495,0.994-0.969,1.516-1.426
		C127.048,159.292,126.541,159.766,126.055,160.26z"/>
	<path style="fill:#8C5046;" d="M133.562,154.834c0.639-0.314,1.293-0.602,1.958-0.868
		C134.855,154.232,134.201,154.519,133.562,154.834z"/>
	<path style="fill:#8C5046;" d="M121.879,165.722c0.346-0.593,0.712-1.173,1.1-1.736
		C122.591,164.549,122.225,165.129,121.879,165.722z"/>
	<path style="fill:#8C5046;" d="M123.141,163.758c0.83-1.179,1.749-2.291,2.749-3.324
		C124.89,161.467,123.971,162.578,123.141,163.758z"/>
	<path style="fill:#8C5046;" d="M129.633,157.196c1.186-0.853,2.442-1.615,3.758-2.275
		C132.075,155.581,130.819,156.343,129.633,157.196z"/>
	<path style="fill:#8C5046;" d="M127.806,158.631c0.528-0.452,1.072-0.886,1.634-1.297
		C128.878,157.746,128.334,158.179,127.806,158.631z"/>
	<path style="fill:#8C5046;" d="M132.078,182.489c-0.046-0.026-0.081-0.047-0.105-0.06
		C131.995,182.442,132.032,182.463,132.078,182.489z"/>
	<path style="fill:#8C5046;" d="M132.241,182.582c-0.062-0.035-0.118-0.067-0.161-0.092
		C132.123,182.515,132.178,182.546,132.241,182.582z"/>
	<path style="fill:#8C5046;" d="M132.5,182.728c-0.09-0.05-0.169-0.095-0.237-0.134C132.33,182.633,132.41,182.678,132.5,182.728z"
		/>
	<path style="fill:#6E4141;" d="M120.385,203.215l2.758,1.839c1.591,1.06,3.751,0.225,4.215-1.63l4.577-21.016
		c0,0,0.013,0.007,0.037,0.022c0.024,0.014,0.059,0.034,0.105,0.06c0.001,0,0.001,0.001,0.002,0.001
		c0.043,0.025,0.099,0.057,0.161,0.092c0.008,0.004,0.013,0.008,0.021,0.012c0.069,0.039,0.148,0.084,0.237,0.134
		c0.001,0.001,0.003,0.002,0.004,0.002c1.118,0.626,3.837,2.102,7.725,3.911v-34.086c-0.743,0.151-1.472,0.337-2.192,0.546
		c-0.072,0.021-0.144,0.04-0.215,0.061c-0.69,0.207-1.369,0.441-2.035,0.699c-0.089,0.034-0.177,0.069-0.266,0.105
		c-0.665,0.266-1.319,0.553-1.958,0.868c-0.057,0.028-0.114,0.059-0.171,0.088c-1.316,0.66-2.572,1.422-3.758,2.275
		c-0.064,0.046-0.13,0.091-0.194,0.138c-0.562,0.411-1.106,0.845-1.634,1.297c-0.079,0.067-0.157,0.135-0.235,0.204
		c-0.522,0.457-1.03,0.931-1.516,1.426c-0.056,0.057-0.109,0.116-0.165,0.173c-1,1.034-1.919,2.145-2.749,3.324
		c-0.054,0.076-0.109,0.151-0.162,0.228c-0.388,0.563-0.754,1.144-1.1,1.736c-0.06,0.103-0.119,0.206-0.178,0.31
		c-0.338,0.597-0.658,1.206-0.952,1.829c-0.041,0.087-0.079,0.176-0.119,0.263c-0.301,0.655-0.583,1.321-0.833,2.003
		c-0.001,0.001-0.001,0.003-0.002,0.004c-0.249,0.678-0.464,1.371-0.659,2.073c-0.028,0.102-0.059,0.203-0.087,0.306
		c-0.179,0.672-0.331,1.355-0.459,2.046c-0.024,0.128-0.047,0.256-0.069,0.384c-0.119,0.695-0.215,1.398-0.282,2.11
		c-0.01,0.107-0.016,0.216-0.025,0.323c-0.061,0.75-0.1,1.506-0.1,2.272v5.472v2.821v11.035c0,0.799,0.193,1.569,0.538,2.263
		C119.043,202.023,119.631,202.712,120.385,203.215z"/>
	<path style="fill:#6B3C41;" d="M129.172,259.807l2.552-3.402c-0.063-0.053-0.131-0.099-0.199-0.146
		c-0.655-0.46-1.502-0.644-2.337-0.405l-21.158,6.045C100.909,263.933,96,270.441,96,277.847V336h26.261v-34.851
		c0-5.538-2.157-10.744-6.073-14.66l-17.864-17.028c0.474-0.806,1.016-1.563,1.618-2.277l18.177,17.327
		c4.461,4.461,6.905,10.361,6.905,16.637V336h16.655L129.172,259.807z"/>
	<path style="fill:#6B3C41;" d="M226.402,269.473l-17.852,17.017c-3.916,3.916-6.073,9.122-6.073,14.66V336h26.208v-58.154
		C228.686,274.822,227.856,271.954,226.402,269.473z"/>
	<path style="fill:#6B3C41;" d="M225.842,268.58c0.135,0.199,0.266,0.4,0.393,0.605C226.109,268.98,225.976,268.779,225.842,268.58z
		"/>
	<path style="fill:#6B3C41;" d="M224.908,267.329c0.215,0.261,0.422,0.528,0.621,0.8
		C225.331,267.856,225.122,267.591,224.908,267.329z"/>
	<path style="fill:#6B3C41;" d="M206.619,284.512l18.174-17.324c-2.075-2.472-4.868-4.355-8.135-5.289l-21.158-6.045
		c-0.836-0.239-1.682-0.055-2.337,0.405c-0.067,0.047-0.136,0.093-0.199,0.146l2.552,3.402l-0.094,0.575L183.006,336h16.707v-34.851
		C199.713,294.872,202.158,288.973,206.619,284.512z"/>
	<path style="fill:#FFE1C8;" d="M129.172,259.807l13.821,16.586v-12.094c0-2.055,2.162-3.391,4-2.472l10.199,5.099
		c0.509-0.932,1.486-1.571,2.622-1.571h2.496l0.033-0.019l-22.703-15.135c-0.715-0.477-1.574-0.568-2.341-0.333
		c-0.542,0.166-1.04,0.489-1.404,0.975l-3.946,5.261l-0.227,0.302L129.172,259.807z"/>
	<path style="fill:#FFE1C8;" d="M185.046,250.201l-22.703,15.135l0.033,0.019h2.496c1.136,0,2.113,0.639,2.622,1.571l10.199-5.099
		c1.838-0.919,4,0.418,4,2.472v12.094l13.248-15.898l0.573-0.688l-2.552-3.402l-0.227-0.302l-3.945-5.26
		c-0.364-0.486-0.862-0.809-1.404-0.975C186.619,249.633,185.761,249.724,185.046,250.201z"/>
	<path style="fill:#D2504B;" d="M156.814,268.355c0-0.52,0.145-1.002,0.378-1.429l-10.199-5.099c-1.838-0.919-4,0.418-4,2.472
		v12.094v1.075c0,2.055,2.162,3.391,4,2.472l10.199-5.099c-0.233-0.427-0.378-0.909-0.378-1.429V268.355z"/>
	<path style="fill:#D2504B;" d="M177.693,261.826l-10.199,5.099c0.233,0.427,0.378,0.909,0.378,1.429v5.057
		c0,0.52-0.144,1.002-0.378,1.429l10.199,5.099c1.838,0.919,4-0.418,4-2.472v-1.075v-12.094
		C181.693,262.244,179.53,260.907,177.693,261.826z"/>
	<path style="fill:#BE3C3C;" d="M167.871,268.355c0-0.52-0.144-1.002-0.378-1.429c-0.509-0.932-1.486-1.571-2.622-1.571h-2.496
		h-0.066h-2.496c-1.136,0-2.113,0.639-2.622,1.571c-0.233,0.427-0.378,0.909-0.378,1.429v5.057c0,0.52,0.145,1.002,0.378,1.429
		c0.509,0.932,1.486,1.571,2.622,1.571h5.057c1.136,0,2.113-0.639,2.622-1.571c0.233-0.427,0.378-0.909,0.378-1.429V268.355z"/>
	<path style="fill:#7D5050;" d="M118.12,284.512l-18.177-17.327c-0.602,0.714-1.144,1.471-1.618,2.277l17.864,17.028
		c3.916,3.916,6.073,9.122,6.073,14.66V336h2.764v-34.851C125.025,294.872,122.581,288.973,118.12,284.512z"/>
	<path style="fill:#7D5050;" d="M208.55,286.489l17.852-17.017l0.012-0.011c-0.056-0.095-0.121-0.183-0.179-0.276
		c-0.126-0.205-0.258-0.407-0.393-0.605c-0.103-0.151-0.205-0.303-0.312-0.45c-0.199-0.273-0.406-0.54-0.621-0.8
		c-0.039-0.047-0.073-0.098-0.112-0.145l-0.003,0.003l-18.174,17.324c-4.461,4.461-6.905,10.361-6.905,16.637V336h2.764v-34.851
		C202.477,295.611,204.634,290.405,208.55,286.489z"/>
	<path style="fill:#D2875A;" d="M251.678,217.461c0.016-0.307,0.049-0.61,0.07-0.916
		C251.726,216.851,251.693,217.153,251.678,217.461z"/>
	<path style="fill:#D2875A;" d="M271.12,179.35c0.318-0.257,0.641-0.508,0.965-0.758C271.76,178.842,271.438,179.093,271.12,179.35z
		"/>
	<path style="fill:#D2875A;" d="M289.236,169.826c0.404-0.119,0.809-0.236,1.218-0.346
		C290.045,169.591,289.64,169.707,289.236,169.826z"/>
	<path style="fill:#D2875A;" d="M284.325,171.546c0.386-0.157,0.774-0.311,1.165-0.459
		C285.099,171.235,284.712,171.389,284.325,171.546z"/>
	<path style="fill:#D2875A;" d="M281.956,172.58c0.376-0.176,0.756-0.347,1.137-0.514
		C282.711,172.233,282.333,172.405,281.956,172.58z"/>
	<path style="fill:#D2875A;" d="M275.239,176.336c0.343-0.226,0.69-0.447,1.039-0.666
		C275.929,175.889,275.583,176.109,275.239,176.336z"/>
	<path style="fill:#D2875A;" d="M273.141,177.795c0.331-0.243,0.667-0.479,1.005-0.714
		C273.808,177.316,273.472,177.552,273.141,177.795z"/>
	<path style="fill:#D2875A;" d="M277.411,174.978c0.354-0.21,0.712-0.415,1.072-0.616
		C278.123,174.563,277.766,174.768,277.411,174.978z"/>
	<path style="fill:#D2875A;" d="M232.257,253.168c0,0.066,0.004,0.131,0.005,0.197h0.005
		C232.266,253.298,232.257,253.234,232.257,253.168z"/>
	<path style="fill:#D2875A;" d="M282.585,193.895c-2.136,0.75-3.335,1.223-3.335,1.223s1.236-0.482,3.342-1.222
		c-0.355,2.599-0.578,5.361-0.578,8.359c11.539,8.762,39.292,21.18,63.497,23.263c-0.799,17.937-9.517,33.344-22.033,41.295v0.374
		v7.226c0,1.546,0.654,2.974,1.729,3.997c0.762-1.455,2.378-2.329,4.128-2.143c2.18,0.328,3.695,2.359,3.375,4.547
		c-0.041,0.282-0.094,0.56-0.145,0.838l16.992,6.372c15.238-4.165,26.442-18.1,26.442-34.659h-0.01c0-0.066,0.01-0.13,0.01-0.197
		c-10.687,0-19.35-8.663-19.35-19.35v-12.366c0-10.678-3.113-20.762-8.505-29.249c0.03,0.256,0.05,0.516,0.05,0.78
		c0,2.717-1.644,5.049-3.991,6.059c0.008,0.008,0.016,0.014,0.023,0.022c5.067,5.067,7.338,11.623,6.531,17.169
		c-5.461,0.795-11.897-1.401-16.931-6.305c-1.191,1.716-3.173,2.842-5.42,2.842c-2.967,0-5.475-1.959-6.304-4.654
		c-2.474,1.25-5.57,0.846-7.637-1.221c-2.062-2.062-2.469-5.148-1.229-7.62c-0.662-0.208-1.276-0.521-1.83-0.914
		c-5.423-0.093-10.13-2.227-12.681-5.379c1.996-2.467,5.316-4.31,9.263-5.043c-2.782-2.819-4.435-6.182-4.681-9.311
		c3.071-0.912,6.893-0.532,10.594,1.138c0.185-0.246,0.383-0.486,0.607-0.711c2.057-2.057,5.134-2.466,7.603-1.237
		c0.746-2.383,2.81-4.177,5.336-4.546c-6.465-3.304-13.7-5.293-21.405-5.567c-0.754-0.027-1.503-0.027-2.25-0.022
		C298.095,167.911,285.405,173.999,282.585,193.895z"/>
	<path style="fill:#D2875A;" d="M302.371,167.716c0.437-0.014,0.874-0.03,1.314-0.033
		C303.245,167.686,302.808,167.701,302.371,167.716z"/>
	<path style="fill:#D2875A;" d="M299.66,167.874c0.431-0.036,0.863-0.073,1.297-0.099
		C300.523,167.801,300.092,167.837,299.66,167.874z"/>
	<path style="fill:#D2875A;" d="M291.771,169.147c0.412-0.099,0.826-0.197,1.242-0.287
		C292.597,168.951,292.184,169.048,291.771,169.147z"/>
	<path style="fill:#D2875A;" d="M294.356,168.593c0.419-0.079,0.839-0.156,1.261-0.225
		C295.195,168.437,294.776,168.514,294.356,168.593z"/>
	<path style="fill:#D2875A;" d="M344.381,187.008c-0.208-0.256-0.41-0.517-0.623-0.769c-0.061,0.15-0.132,0.296-0.205,0.442
		C343.839,186.77,344.114,186.883,344.381,187.008z"/>
	<path style="fill:#D2875A;" d="M296.988,168.167c0.425-0.058,0.851-0.115,1.279-0.163
		C297.839,168.052,297.414,168.109,296.988,168.167z"/>
	<path style="fill:#D2875A;" d="M286.753,170.627c0.396-0.139,0.792-0.274,1.192-0.403
		C287.545,170.353,287.148,170.489,286.753,170.627z"/>
	<path style="fill:#D2875A;" d="M253.3,206.928c0.1-0.386,0.217-0.765,0.326-1.147C253.517,206.163,253.4,206.542,253.3,206.928z"/>
	<path style="fill:#D2875A;" d="M256.902,197.196c0.178-0.365,0.369-0.723,0.555-1.084
		C257.271,196.473,257.081,196.831,256.902,197.196z"/>
	<path style="fill:#D2875A;" d="M254.867,201.948c0.14-0.379,0.295-0.75,0.443-1.125
		C255.162,201.198,255.008,201.57,254.867,201.948z"/>
	<path style="fill:#D2875A;" d="M255.828,199.541c0.159-0.372,0.332-0.737,0.5-1.105
		C256.16,198.804,255.988,199.169,255.828,199.541z"/>
	<path style="fill:#D2875A;" d="M254.024,204.411c0.121-0.384,0.257-0.76,0.386-1.14
		C254.28,203.651,254.144,204.027,254.024,204.411z"/>
	<path style="fill:#D2875A;" d="M252.7,209.495c0.08-0.386,0.177-0.766,0.265-1.149C252.877,208.729,252.78,209.109,252.7,209.495z"
		/>
	<path style="fill:#D2875A;" d="M251.886,214.764c0.037-0.359,0.092-0.713,0.136-1.07
		C251.977,214.051,251.922,214.405,251.886,214.764z"/>
	<path style="fill:#D2875A;" d="M252.228,212.108c0.059-0.379,0.135-0.752,0.201-1.128
		C252.362,211.356,252.286,211.729,252.228,212.108z"/>
	<path style="fill:#D2875A;" d="M267.316,182.744c0.291-0.287,0.589-0.566,0.887-0.846
		C267.905,182.177,267.608,182.457,267.316,182.744z"/>
	<path style="fill:#D2875A;" d="M263.858,186.487c0.262-0.312,0.531-0.618,0.8-0.924
		C264.389,185.869,264.12,186.174,263.858,186.487z"/>
	<path style="fill:#D2875A;" d="M265.543,184.573c0.277-0.299,0.56-0.592,0.844-0.885
		C266.103,183.981,265.819,184.273,265.543,184.573z"/>
	<path style="fill:#D2875A;" d="M269.175,181.003c0.305-0.272,0.616-0.538,0.928-0.804
		C269.792,180.464,269.481,180.73,269.175,181.003z"/>
	<path style="fill:#D2875A;" d="M262.267,188.48c0.246-0.325,0.501-0.642,0.755-0.961
		C262.769,187.838,262.514,188.156,262.267,188.48z"/>
	<path style="fill:#D2875A;" d="M259.378,192.698c0.214-0.347,0.438-0.687,0.66-1.029
		C259.816,192.01,259.592,192.35,259.378,192.698z"/>
	<path style="fill:#D2875A;" d="M258.087,194.912c0.196-0.356,0.403-0.705,0.607-1.056
		C258.49,194.207,258.283,194.556,258.087,194.912z"/>
	<path style="fill:#D2875A;" d="M260.773,190.552c0.23-0.336,0.47-0.665,0.708-0.995
		C261.243,189.887,261.003,190.216,260.773,190.552z"/>
	<path style="fill:#D2875A;" d="M279.65,173.725c0.366-0.193,0.736-0.382,1.107-0.567
		C280.385,173.343,280.016,173.532,279.65,173.725z"/>
	<path style="fill:#BE6E4B;" d="M275.547,280.813c-0.32-2.188,1.195-4.219,3.375-4.547c1.767-0.186,3.372,0.686,4.13,2.14
		c0.273-0.26,0.529-0.537,0.743-0.846c0.157-0.226,0.297-0.464,0.418-0.712c0.243-0.495,0.414-1.029,0.5-1.586
		c0.043-0.279,0.066-0.563,0.066-0.851v-7.576c-11.17-7.079-19.313-20.094-21.523-35.55c4.827-4.712,14.71-15.565,18.683-28.791
		c0.024-0.08,0.052-0.159,0.076-0.24c0-2.998,0.223-5.76,0.578-8.359c-2.106,0.741-3.342,1.222-3.342,1.222s1.199-0.473,3.335-1.223
		c2.82-19.896,15.51-25.984,21.209-26.211c0.112-0.004,0.228-0.012,0.335-0.012c-0.149,0-0.295,0.01-0.444,0.011
		c-0.44,0.004-0.877,0.019-1.314,0.033c-0.472,0.016-0.944,0.032-1.413,0.06c-0.434,0.026-0.866,0.062-1.297,0.099
		c-0.466,0.039-0.931,0.08-1.393,0.131c-0.429,0.048-0.854,0.105-1.279,0.163c-0.458,0.062-0.916,0.126-1.371,0.201
		c-0.423,0.069-0.842,0.146-1.261,0.225c-0.449,0.085-0.898,0.172-1.343,0.268c-0.416,0.09-0.829,0.187-1.242,0.287
		c-0.441,0.107-0.881,0.216-1.318,0.333c-0.408,0.11-0.813,0.226-1.218,0.346c-0.433,0.128-0.863,0.259-1.291,0.397
		c-0.4,0.129-0.797,0.265-1.192,0.403c-0.423,0.148-0.844,0.301-1.262,0.46c-0.391,0.148-0.779,0.302-1.165,0.459
		c-0.414,0.168-0.824,0.341-1.232,0.52c-0.381,0.167-0.76,0.338-1.137,0.514c-0.403,0.188-0.802,0.38-1.199,0.578
		c-0.372,0.185-0.741,0.374-1.107,0.567c-0.392,0.207-0.781,0.419-1.167,0.636c-0.36,0.202-0.717,0.406-1.072,0.616
		c-0.381,0.226-0.758,0.457-1.133,0.692c-0.349,0.219-0.696,0.439-1.039,0.666c-0.368,0.243-0.732,0.492-1.094,0.745
		c-0.337,0.235-0.673,0.472-1.005,0.714c-0.356,0.261-0.707,0.528-1.056,0.797c-0.324,0.25-0.647,0.501-0.965,0.758
		c-0.343,0.278-0.681,0.562-1.017,0.848c-0.312,0.265-0.623,0.531-0.928,0.804c-0.329,0.293-0.651,0.594-0.972,0.895
		c-0.298,0.28-0.596,0.56-0.887,0.846c-0.315,0.31-0.623,0.627-0.93,0.944c-0.283,0.293-0.567,0.585-0.844,0.885
		c-0.3,0.325-0.592,0.658-0.884,0.99c-0.269,0.306-0.539,0.612-0.8,0.924c-0.284,0.339-0.56,0.686-0.836,1.033
		c-0.254,0.319-0.509,0.636-0.755,0.961c-0.269,0.354-0.527,0.716-0.787,1.076c-0.238,0.331-0.478,0.659-0.708,0.995
		c-0.252,0.367-0.492,0.742-0.735,1.116c-0.222,0.342-0.446,0.682-0.66,1.029c-0.235,0.382-0.458,0.771-0.683,1.159
		c-0.204,0.351-0.411,0.7-0.607,1.056c-0.218,0.395-0.422,0.798-0.63,1.2c-0.186,0.36-0.377,0.719-0.555,1.084
		c-0.199,0.409-0.385,0.825-0.574,1.24c-0.168,0.368-0.34,0.733-0.5,1.105c-0.181,0.423-0.347,0.854-0.518,1.283
		c-0.149,0.375-0.303,0.746-0.443,1.125c-0.162,0.437-0.308,0.881-0.458,1.323c-0.129,0.38-0.265,0.757-0.386,1.14
		c-0.142,0.452-0.268,0.912-0.398,1.37c-0.109,0.382-0.225,0.761-0.326,1.147c-0.122,0.469-0.225,0.945-0.335,1.419
		c-0.088,0.383-0.185,0.763-0.265,1.149c-0.102,0.491-0.183,0.989-0.271,1.485c-0.067,0.376-0.143,0.749-0.201,1.128
		c-0.081,0.525-0.141,1.057-0.206,1.587c-0.044,0.357-0.099,0.711-0.136,1.07c-0.061,0.589-0.097,1.185-0.138,1.78
		c-0.021,0.306-0.054,0.609-0.07,0.916c-0.046,0.905-0.071,1.816-0.071,2.732v13.625c0,10.687-8.663,19.35-19.35,19.35
		c0,0.066,0.01,0.13,0.01,0.197h-0.005h-0.005c0,16.559,11.204,30.493,26.441,34.659l16.993-6.372
		C275.641,281.372,275.588,281.094,275.547,280.813z"/>
	<path style="fill:#FFD7B4;" d="M356.945,290.793l-7.386-2.77l-16.992-6.372c-2.355,13.002-14.422,22.709-28.441,22.709
		c-14.012,0-26.079-9.707-28.434-22.709l-16.993,6.372l-7.386,2.77c-6.473,2.428-10.762,8.616-10.762,15.53V336h22.114v-15.722
		c0-7.265,6.886-12.556,13.906-10.684l27.558,7.349l27.558-7.349c7.02-1.872,13.906,3.419,13.906,10.684V336h22.114v-29.678
		C367.707,299.409,363.419,293.22,356.945,290.793z"/>
	<path style="fill:#FFD7B4;" d="M323.479,267.186v-0.374c-0.096,0.061-0.195,0.119-0.292,0.179L323.479,267.186z"/>
	<path style="fill:#FFD7B4;" d="M284.212,276.849c0.243-0.495,0.414-1.029,0.5-1.586
		C284.626,275.82,284.456,276.354,284.212,276.849z"/>
	<path style="fill:#FFD7B4;" d="M283.484,279.717c1.435,9.493,10.294,16.643,20.641,16.643c10.383,0,19.266-7.188,20.664-16.719
		c0.068-0.449,0.221-0.855,0.419-1.232c-1.075-1.023-1.729-2.45-1.729-3.997v-7.226
		C323.479,267.186,309.731,280.824,283.484,279.717z"/>
	<path style="fill:#FFB996;" d="M283.469,279.641c0.004,0.026,0.011,0.05,0.015,0.076c26.247,1.107,39.995-12.531,39.995-12.531
		l-0.292-0.194c-5.282,3.292-11.225,5.258-17.531,5.536c-0.513,0.028-1.027,0.047-1.546,0.047c-6.983,0-13.558-2.081-19.331-5.739
		v7.576c0,0.288-0.022,0.572-0.066,0.851c-0.087,0.557-0.257,1.091-0.5,1.586c-0.122,0.248-0.262,0.485-0.418,0.712
		c-0.214,0.309-0.469,0.585-0.743,0.846C283.248,278.784,283.401,279.191,283.469,279.641z"/>
	<path style="fill:#FFE6D2;" d="M309.568,272.094c-1.29,0.204-2.592,0.36-3.912,0.433c6.306-0.278,12.25-2.245,17.531-5.536
		c0.097-0.06,0.195-0.118,0.292-0.179c12.516-7.951,21.233-23.358,22.033-41.295c-24.205-2.082-51.958-14.501-63.497-23.263
		c-0.024,0.081-0.051,0.159-0.076,0.24c0,4.006,0,11.892,0,20.323C281.939,248.071,293.98,268.881,309.568,272.094z M317.95,228.285
		c0-1.524,1.236-2.76,2.76-2.76h0.009c1.524,0,2.76,1.236,2.76,2.76v2.773c0,1.524-1.236,2.76-2.76,2.76h-0.009
		c-1.524,0-2.76-1.236-2.76-2.76V228.285z M317.628,247.639c2.514,0,3.69,3.049,1.889,4.801c-3.977,3.869-9.4,6.256-15.388,6.256
		c-5.988,0-11.411-2.386-15.388-6.256c-1.802-1.753-0.625-4.801,1.888-4.801H317.628z M284.778,228.285
		c0-1.524,1.236-2.76,2.76-2.76h0.009c1.524,0,2.76,1.236,2.76,2.76v2.773c0,1.524-1.236,2.76-2.76,2.76h-0.009
		c-1.524,0-2.76-1.236-2.76-2.76V228.285z"/>
	<path style="fill:#FFD7B4;" d="M304.109,272.575c0.519,0,1.034-0.019,1.546-0.047c1.32-0.073,2.622-0.229,3.912-0.433
		c-15.588-3.214-27.629-24.023-27.629-49.277c0-8.431,0-16.317,0-20.323c-3.974,13.226-13.856,24.079-18.683,28.791
		c2.21,15.456,10.353,28.472,21.523,35.55C290.552,270.494,297.127,272.575,304.109,272.575z"/>
	<path style="fill:#6E4141;" d="M287.538,233.818h0.009c1.524,0,2.76-1.236,2.76-2.76v-2.773c0-1.524-1.236-2.76-2.76-2.76h-0.009
		c-1.524,0-2.76,1.236-2.76,2.76v2.773C284.778,232.582,286.014,233.818,287.538,233.818z"/>
	<path style="fill:#6E4141;" d="M320.71,233.818h0.009c1.524,0,2.76-1.236,2.76-2.76v-2.773c0-1.524-1.236-2.76-2.76-2.76h-0.009
		c-1.524,0-2.76,1.236-2.76,2.76v2.773C317.95,232.582,319.186,233.818,320.71,233.818z"/>
	<path style="fill:#FFFFFF;" d="M288.74,252.441c3.977,3.869,9.4,6.256,15.388,6.256c5.988,0,11.411-2.386,15.388-6.256
		c1.802-1.753,0.625-4.801-1.889-4.801h-27C288.115,247.639,286.938,250.688,288.74,252.441z"/>
	<path style="fill:#FFEBE1;" d="M331.687,309.594l-27.558,7.349l-27.558-7.349c-7.02-1.872-13.906,3.419-13.906,10.684V336h82.929
		v-15.722C345.593,313.013,338.706,307.722,331.687,309.594z"/>
	<path style="fill:#FFFFFF;" d="M329.336,276.266c-1.75-0.186-3.366,0.687-4.128,2.143c-0.197,0.377-0.351,0.784-0.419,1.232
		c-1.398,9.531-10.281,16.719-20.664,16.719c-10.347,0-19.206-7.15-20.641-16.643c-0.004-0.026-0.011-0.05-0.015-0.076
		c-0.068-0.449-0.221-0.857-0.417-1.235c-0.757-1.454-2.362-2.326-4.13-2.14c-2.18,0.328-3.695,2.359-3.375,4.547
		c0.041,0.281,0.094,0.559,0.144,0.838c2.355,13.002,14.421,22.709,28.434,22.709c14.02,0,26.086-9.707,28.441-22.709
		c0.05-0.279,0.103-0.557,0.145-0.838C333.031,278.625,331.516,276.594,329.336,276.266z"/>
	<path style="fill:#82C888;" d="M342.335,206.909c-2.064,2.064-5.155,2.47-7.628,1.225c-0.201,0.647-0.502,1.249-0.879,1.793
		c5.034,4.904,11.47,7.1,16.931,6.305c0.807-5.546-1.464-12.102-6.531-17.169c-0.008-0.008-0.016-0.014-0.023-0.022
		c-0.21,0.09-0.424,0.172-0.644,0.24C344.805,201.754,344.399,204.845,342.335,206.909z"/>
	<path style="fill:#82C888;" d="M308.62,192.982c0-2.969,1.963-5.479,4.661-6.306c-1.105-2.203-0.897-4.89,0.622-6.91
		c-3.701-1.67-7.523-2.05-10.594-1.138c0.246,3.129,1.898,6.492,4.681,9.311c-3.947,0.733-7.266,2.575-9.263,5.043
		c2.55,3.152,7.258,5.286,12.681,5.379C309.723,197.166,308.62,195.205,308.62,192.982z"/>
	<path style="fill:#82C888;" d="M334.709,177.837c2.47-1.235,5.551-0.827,7.611,1.233c0.636,0.636,1.114,1.37,1.436,2.154
		c1.622-3.387,2.121-6.902,1.443-9.827c-3.623,0.063-7.671,1.974-10.925,5.389C334.447,177.121,334.596,177.471,334.709,177.837z"/>
	<path style="fill:#FFD7A5;" d="M313.281,186.676c0.612-0.188,1.261-0.29,1.935-0.29c2.469,0,7.038,1.359,9.731,3.367
		c0.075-0.08,0.151-0.157,0.231-0.231c-2.008-2.693-3.367-7.262-3.367-9.731c0-0.687,0.105-1.349,0.301-1.972
		c-2.469-1.229-5.545-0.821-7.603,1.237c-0.224,0.224-0.422,0.464-0.607,0.711C312.385,181.786,312.176,184.473,313.281,186.676z"/>
	<path style="fill:#FFD7A5;" d="M334.709,177.837c0.191,0.617,0.294,1.273,0.294,1.954c0,2.469-1.359,7.038-3.367,9.731
		c0.08,0.075,0.157,0.151,0.231,0.231c2.693-2.008,7.262-3.367,9.731-3.367c0.68,0,1.336,0.103,1.954,0.295
		c0.073-0.146,0.144-0.292,0.205-0.442c0.658-1.604,0.657-3.413-0.002-5.016c-0.322-0.783-0.8-1.517-1.436-2.154
		C340.26,177.01,337.179,176.602,334.709,177.837z"/>
	<path style="fill:#FFD7A5;" d="M331.637,196.442c2.008,2.693,3.367,7.262,3.367,9.731c0,0.683-0.104,1.341-0.296,1.961
		c2.473,1.245,5.563,0.839,7.628-1.225c2.064-2.064,2.47-5.155,1.225-7.628c-0.619,0.193-1.278,0.296-1.961,0.296
		c-2.469,0-7.038-1.359-9.731-3.367C331.793,196.291,331.717,196.368,331.637,196.442z"/>
	<path style="fill:#FFD7A5;" d="M325.179,196.442c-0.08-0.075-0.157-0.151-0.231-0.231c-2.693,2.008-7.262,3.367-9.731,3.367
		c-0.69,0-1.354-0.107-1.979-0.303c-1.24,2.471-0.833,5.557,1.229,7.62c2.067,2.067,5.163,2.471,7.637,1.221
		c-0.189-0.614-0.292-1.266-0.292-1.942C321.812,203.705,323.171,199.135,325.179,196.442z"/>
	<path style="fill:#FFE6CD;" d="M335.004,206.174c0-2.469-1.359-7.038-3.367-9.731c-0.848,0.791-1.978,1.285-3.229,1.285
		s-2.381-0.494-3.229-1.285c-2.008,2.693-3.367,7.262-3.367,9.731c0,0.676,0.103,1.328,0.292,1.942
		c0.829,2.695,3.337,4.654,6.304,4.654c2.247,0,4.229-1.126,5.42-2.842c0.378-0.544,0.678-1.146,0.879-1.793
		C334.9,207.515,335.004,206.856,335.004,206.174z"/>
	<path style="fill:#FFE6CD;" d="M322.113,177.818c-0.195,0.623-0.301,1.285-0.301,1.972c0,2.469,1.359,7.038,3.367,9.731
		c0.848-0.791,1.978-1.285,3.229-1.285s2.381,0.494,3.229,1.285c2.008-2.693,3.367-7.262,3.367-9.731
		c0-0.68-0.103-1.336-0.294-1.954c-0.114-0.366-0.262-0.716-0.435-1.052c-1.094-2.13-3.307-3.59-5.866-3.59
		c-0.327,0-0.645,0.032-0.959,0.077C324.922,173.641,322.859,175.435,322.113,177.818z"/>
	<path style="fill:#FFE6CD;" d="M324.948,196.211c-0.791-0.848-1.285-1.978-1.285-3.229s0.494-2.381,1.285-3.229
		c-2.693-2.008-7.262-3.367-9.731-3.367c-0.673,0-1.323,0.102-1.935,0.29c-2.698,0.827-4.661,3.337-4.661,6.306
		c0,2.223,1.103,4.184,2.787,5.379c0.554,0.393,1.168,0.706,1.83,0.914c0.625,0.196,1.289,0.303,1.979,0.303
		C317.685,199.578,322.255,198.219,324.948,196.211z"/>
	<path style="fill:#FFE6CD;" d="M341.599,186.386c-2.469,0-7.038,1.359-9.731,3.367c0.791,0.848,1.285,1.978,1.285,3.229
		s-0.494,2.381-1.285,3.229c2.693,2.008,7.262,3.367,9.731,3.367c0.683,0,1.341-0.104,1.961-0.296c0.22-0.068,0.435-0.15,0.644-0.24
		c2.347-1.01,3.991-3.342,3.991-6.059c0-0.264-0.02-0.524-0.05-0.78c-0.272-2.31-1.738-4.249-3.763-5.194
		c-0.268-0.125-0.542-0.239-0.828-0.327C342.936,186.49,342.28,186.386,341.599,186.386z"/>
	<path style="fill:#FFC882;" d="M324.948,189.753c-0.791,0.848-1.285,1.978-1.285,3.229s0.494,2.381,1.285,3.229
		c0.075,0.08,0.151,0.157,0.231,0.231c0.848,0.791,1.978,1.285,3.229,1.285s2.381-0.494,3.229-1.285
		c0.08-0.075,0.157-0.151,0.231-0.231c0.791-0.848,1.285-1.978,1.285-3.229s-0.494-2.381-1.285-3.229
		c-0.075-0.08-0.151-0.157-0.231-0.231c-0.848-0.791-1.978-1.285-3.229-1.285s-2.381,0.494-3.229,1.285
		C325.099,189.597,325.022,189.673,324.948,189.753z"/>
	<path style="fill:#6E6469;" d="M448,48H16C7.164,48,0,55.163,0,64v64h48c4.418,0,8,3.582,8,8v192c0,4.418-3.582,8-8,8H0v64
		c0,8.836,7.164,16,16,16h432c8.836,0,16-7.164,16-16v-64h-48c-4.418,0-8-3.582-8-8V136c0-4.418,3.582-8,8-8h48V64
		C464,55.163,456.837,48,448,48z M56,392c0,4.418-3.582,8-8,8H24c-4.418,0-8-3.582-8-8v-32c0-4.418,3.582-8,8-8h24
		c4.418,0,8,3.582,8,8V392z M352,72c0-4.418,3.582-8,8-8h24c4.418,0,8,3.582,8,8v32c0,4.418-3.582,8-8,8h-24c-4.418,0-8-3.582-8-8
		V72z M392,328c0,4.418-3.582,8-8,8h-16.293h-22.114h-82.929H240.55h-11.864h-26.208h-2.764h-16.707H141.68h-16.655h-2.764H96H80
		c-4.418,0-8-3.582-8-8V136c0-4.418,3.582-8,8-8h304c4.418,0,8,3.582,8,8V328z M296,72c0-4.418,3.582-8,8-8h24c4.418,0,8,3.582,8,8
		v32c0,4.418-3.582,8-8,8h-24c-4.418,0-8-3.582-8-8V72z M240,72c0-4.418,3.582-8,8-8h24c4.418,0,8,3.582,8,8v32c0,4.418-3.582,8-8,8
		h-24c-4.418,0-8-3.582-8-8V72z M184,72c0-4.418,3.582-8,8-8h24c4.418,0,8,3.582,8,8v32c0,4.418-3.582,8-8,8h-24
		c-4.418,0-8-3.582-8-8V72z M128,72c0-4.418,3.582-8,8-8h24c4.418,0,8,3.582,8,8v32c0,4.418-3.582,8-8,8h-24c-4.418,0-8-3.582-8-8
		V72z M72,72c0-4.418,3.582-8,8-8h24c4.418,0,8,3.582,8,8v32c0,4.418-3.582,8-8,8H80c-4.418,0-8-3.582-8-8V72z M56,104
		c0,4.418-3.582,8-8,8H24c-4.418,0-8-3.582-8-8V72c0-4.418,3.582-8,8-8h24c4.418,0,8,3.582,8,8V104z M112,392c0,4.418-3.582,8-8,8
		H80c-4.418,0-8-3.582-8-8v-32c0-4.418,3.582-8,8-8h24c4.418,0,8,3.582,8,8V392z M168,392c0,4.418-3.582,8-8,8h-24
		c-4.418,0-8-3.582-8-8v-32c0-4.418,3.582-8,8-8h24c4.418,0,8,3.582,8,8V392z M224,392c0,4.418-3.582,8-8,8h-24
		c-4.418,0-8-3.582-8-8v-32c0-4.418,3.582-8,8-8h24c4.418,0,8,3.582,8,8V392z M280,392c0,4.418-3.582,8-8,8h-24
		c-4.418,0-8-3.582-8-8v-32c0-4.418,3.582-8,8-8h24c4.418,0,8,3.582,8,8V392z M336,392c0,4.418-3.582,8-8,8h-24
		c-4.418,0-8-3.582-8-8v-32c0-4.418,3.582-8,8-8h24c4.418,0,8,3.582,8,8V392z M392,392c0,4.418-3.582,8-8,8h-24
		c-4.418,0-8-3.582-8-8v-32c0-4.418,3.582-8,8-8h24c4.418,0,8,3.582,8,8V392z M416,352h24c4.418,0,8,3.582,8,8v32
		c0,4.418-3.582,8-8,8h-24c-4.418,0-8-3.582-8-8v-32C408,355.582,411.582,352,416,352z M448,104c0,4.418-3.582,8-8,8h-24
		c-4.418,0-8-3.582-8-8V72c0-4.418,3.582-8,8-8h24c4.418,0,8,3.582,8,8V104z"/>
	<path style="fill:#DEE1E9;" d="M408,136v192c0,4.418,3.582,8,8,8h48V128h-48C411.582,128,408,131.582,408,136z"/>
	<path style="fill:#DEE1E9;" d="M56,328V136c0-4.418-3.582-8-8-8H0v208h48C52.418,336,56,332.419,56,328z"/>
</g>
</svg>